<svg xmlns="http://www.w3.org/2000/svg" xmlns:xlink="http://www.w3.org/1999/xlink" width="150" zoomAndPan="magnify" viewBox="0 0 112.5 112.499997" height="150" preserveAspectRatio="xMidYMid meet" version="1.0"><defs><clipPath id="d0799c747f"><path d="M 0 1.207031 L 112.003906 1.207031 L 112.003906 66 L 0 66 Z M 0 1.207031 " clip-rule="nonzero"/></clipPath><clipPath id="15bec8a771"><path d="M 0 51 L 112.003906 51 L 112.003906 110.972656 L 0 110.972656 Z M 0 51 " clip-rule="nonzero"/></clipPath></defs><g clip-path="url(#d0799c747f)"><path fill="#002c6a" d="M -1.757812 0.414062 C 36.882812 0.414062 75.523438 0.414062 114.160156 0.414062 C 114.160156 8.378906 114.160156 16.339844 114.160156 24.304688 C 107.246094 21.90625 100.945312 22.953125 95.261719 27.445312 C 90.054688 34.691406 85.644531 42.441406 82.03125 50.707031 C 76.359375 57.902344 69.011719 60.628906 59.980469 58.878906 C 50.898438 54.878906 41.445312 52.15625 31.632812 50.707031 C 19.371094 52.53125 8.660156 57.558594 -0.5 65.792969 C -1.757812 44.015625 -2.175781 22.222656 -1.757812 0.414062 Z M -1.757812 0.414062 " fill-opacity="0.959" fill-rule="evenodd"/></g><g clip-path="url(#15bec8a771)"><path fill="#002c6a" d="M 109.121094 51.964844 C 110.800781 51.964844 112.484375 51.964844 114.160156 51.964844 C 114.160156 72.5 114.160156 93.035156 114.160156 113.574219 C 75.511719 113.992188 36.871094 113.574219 -1.757812 112.316406 C -0.929688 99.53125 4.109375 88.84375 13.363281 80.253906 C 17.671875 77.902344 22.292969 76.855469 27.222656 77.109375 C 38.410156 78.664062 49.328125 81.386719 59.980469 85.285156 C 65.863281 86.121094 71.742188 86.121094 77.621094 85.285156 C 81.078125 83.9375 84.226562 82.050781 87.070312 79.625 C 90.433594 73.757812 93.792969 67.890625 97.152344 62.023438 C 100.640625 57.898438 104.632812 54.546875 109.121094 51.964844 Z M 109.121094 51.964844 " fill-opacity="0.939" fill-rule="evenodd"/></g></svg>